<?xml version="1.0" standalone="no"?>
<!DOCTYPE svg PUBLIC "-//W3C//DTD SVG 20010904//EN"
 "http://www.w3.org/TR/2001/REC-SVG-20010904/DTD/svg10.dtd">
<svg version="1.0" xmlns="http://www.w3.org/2000/svg"
 width="521.000000pt" height="521.000000pt" viewBox="0 0 521.000000 521.000000"
 preserveAspectRatio="xMidYMid meet">
<metadata>
Created by potrace 1.11, written by Peter Selinger 2001-2013
</metadata>
<g transform="translate(0.000000,521.000000) scale(0.100000,-0.100000)"
fill="#000000" stroke="none">
<path d="M2405 5194 c-20 -6 -45 -20 -55 -29 -11 -10 -48 -32 -82 -49 -60 -30
-65 -35 -108 -117 -25 -47 -61 -123 -79 -170 -32 -81 -33 -87 -27 -180 6 -86
4 -99 -13 -120 l-19 -24 -93 48 c-107 56 -175 84 -222 92 -17 3 -58 10 -89 16
-31 5 -92 11 -135 13 -73 3 -150 15 -233 36 -19 5 -46 8 -60 7 -14 -2 -36 1
-50 5 -14 6 -51 5 -90 -2 -66 -11 -67 -12 -99 -65 l-32 -53 20 -39 c36 -68 72
-99 153 -132 42 -17 84 -31 93 -31 25 0 78 -31 69 -39 -5 -5 -31 -14 -59 -21
-69 -16 -83 -19 -138 -25 -27 -4 -59 -10 -72 -15 -13 -5 -58 -16 -100 -25 -42
-8 -121 -32 -176 -52 -81 -30 -112 -48 -159 -91 -54 -49 -59 -56 -53 -85 9
-49 17 -59 64 -77 24 -10 49 -26 54 -37 41 -80 206 -141 370 -137 125 3 263
15 330 28 77 16 175 28 175 21 0 -3 -87 -63 -194 -134 -107 -72 -209 -143
-228 -159 -18 -16 -67 -51 -108 -78 -88 -56 -202 -163 -235 -219 -33 -56 -49
-124 -36 -156 12 -32 73 -72 110 -72 14 0 64 3 111 6 47 4 123 9 170 12 190
13 263 32 375 98 28 17 70 41 95 55 77 43 116 69 151 102 19 17 42 36 52 41
17 10 17 9 3 -20 -9 -16 -16 -37 -16 -46 0 -8 -4 -15 -8 -15 -23 0 -112 -232
-112 -290 0 -17 -9 -56 -21 -88 -41 -114 -51 -164 -49 -267 1 -132 32 -195
115 -235 81 -39 113 -38 191 8 196 114 198 117 308 256 254 322 300 451 311
866 4 137 5 153 12 146 4 -3 8 -12 9 -19 31 -177 43 -216 114 -358 40 -79 87
-167 105 -195 47 -74 152 -182 199 -206 23 -12 55 -31 71 -43 17 -13 48 -32
70 -44 22 -12 65 -38 95 -57 30 -19 67 -34 82 -34 45 0 94 52 113 118 30 107
28 107 76 7 23 -49 83 -155 132 -235 50 -80 115 -192 145 -250 31 -58 77 -137
103 -176 27 -40 89 -152 140 -250 51 -99 111 -210 134 -249 62 -104 80 -141
118 -250 19 -55 47 -127 61 -159 15 -34 25 -74 24 -93 -1 -19 3 -38 10 -42 14
-9 97 -216 107 -268 4 -21 27 -90 52 -153 47 -117 66 -179 108 -355 14 -55 34
-133 45 -174 11 -41 20 -85 20 -98 0 -58 40 -81 75 -43 13 14 15 27 10 47 -4
15 -9 42 -11 58 -2 17 -8 39 -13 50 -13 27 -50 180 -57 230 -6 52 -14 77 -63
209 -23 61 -41 120 -41 132 0 13 -4 25 -9 28 -13 8 -43 123 -45 175 -3 50 -69
233 -92 251 -12 11 -50 124 -68 203 -10 44 -263 539 -315 617 -10 14 -34 61
-55 105 -21 44 -48 91 -61 105 -13 14 -47 72 -76 130 -28 57 -62 119 -75 136
-13 17 -24 40 -24 51 0 12 -15 43 -34 69 -55 77 -121 186 -218 359 -50 88
-101 172 -114 188 -13 16 -39 61 -58 100 -18 40 -43 81 -56 92 -12 11 -32 43
-45 70 -12 28 -36 62 -52 76 -17 14 -36 36 -43 50 -27 51 -92 119 -114 119
-23 0 -94 65 -83 76 3 3 101 -17 216 -45 116 -28 239 -54 274 -57 34 -3 85
-12 112 -20 94 -27 320 -74 355 -74 19 0 53 -5 74 -11 35 -10 196 -20 285 -19
18 1 65 7 103 15 38 8 71 15 72 15 8 0 85 78 108 110 29 41 95 200 102 248 4
29 0 36 -27 53 -48 29 -132 54 -352 105 -292 67 -381 84 -459 85 -51 1 -51 1
-21 14 17 7 51 16 77 19 78 11 179 54 205 87 7 9 44 26 83 39 49 16 81 34 108
60 20 20 46 40 57 44 37 12 61 41 74 88 15 52 5 99 -31 151 -22 31 -129 107
-152 107 -8 0 -28 11 -44 25 -61 51 -130 58 -417 42 -99 -6 -268 -66 -375
-133 -19 -12 -51 -27 -70 -33 -19 -6 -64 -29 -99 -51 -36 -21 -67 -38 -69 -36
-7 8 52 91 112 156 73 80 168 202 180 233 19 48 18 92 -2 117 -19 23 -26 25
-108 23 -67 -1 -107 -8 -159 -26 -170 -60 -241 -89 -258 -105 -35 -31 -106
-140 -119 -181 -7 -22 -15 -41 -18 -41 -3 0 -6 19 -6 43 -1 52 -69 200 -144
313 -29 44 -54 80 -56 82 -7 10 -57 8 -89 -4z m80 -34 c4 -7 -3 -8 -22 -4 -38
9 -42 14 -10 14 14 0 29 -5 32 -10z m-13 -54 c7 -14 34 -62 59 -108 59 -106
86 -192 95 -293 3 -44 7 -82 9 -85 1 -3 -1 -15 -5 -26 -8 -19 -15 -21 -73 -19
-35 2 -81 0 -102 -5 -33 -8 -43 -5 -67 15 -23 19 -34 22 -52 15 -13 -5 -42 -9
-63 -8 -22 0 -54 -3 -71 -6 -25 -6 -33 -3 -42 14 -34 63 -29 133 15 246 51
130 68 154 153 214 39 27 73 54 77 60 12 19 53 11 67 -14z m102 -91 c51 -89
89 -185 91 -227 1 -21 -2 -38 -7 -38 -4 0 -8 11 -8 24 0 33 -55 194 -74 215
-8 9 -21 32 -30 51 -8 19 -23 46 -32 60 l-16 25 21 -25 c12 -14 37 -52 55 -85z
m-254 81 c0 -2 -18 -15 -40 -30 -22 -14 -54 -45 -70 -68 -35 -48 -38 -40 -7
17 22 39 77 85 103 85 8 0 14 -2 14 -4z m1017 -28 c18 -14 9 -73 -15 -103 -9
-12 -43 -57 -75 -100 -33 -43 -83 -102 -113 -133 -87 -90 -129 -192 -78 -192
8 0 52 23 97 50 45 28 87 50 94 50 7 0 50 20 96 44 146 79 259 118 362 122
224 11 288 8 335 -15 196 -97 237 -130 260 -213 15 -52 -27 -127 -72 -128 -9
0 -27 -14 -39 -31 -22 -32 -112 -79 -150 -79 -11 0 -30 -11 -42 -24 -35 -37
-123 -76 -206 -91 -78 -13 -141 -40 -149 -63 -6 -18 33 -28 128 -36 124 -10
618 -119 717 -159 65 -26 76 -49 50 -102 -8 -16 -27 -61 -42 -99 -19 -46 -45
-87 -79 -122 -48 -50 -56 -54 -128 -69 -74 -14 -275 -14 -340 1 -13 3 -57 9
-99 14 -41 5 -95 14 -120 20 -24 7 -57 14 -74 17 -16 3 -73 16 -125 30 -52 13
-117 26 -145 28 -64 5 -72 6 -308 66 -153 38 -202 47 -217 39 -11 -6 -20 -16
-20 -23 0 -32 81 -117 111 -117 21 0 88 -73 101 -111 5 -16 13 -29 18 -29 16
0 69 -64 75 -91 4 -15 24 -47 45 -71 21 -24 52 -73 69 -108 17 -36 51 -94 76
-130 25 -36 52 -76 59 -90 28 -55 170 -307 189 -335 11 -16 33 -45 49 -63 15
-18 30 -45 34 -60 8 -36 32 -90 44 -97 5 -3 35 -57 66 -121 31 -63 65 -120 74
-127 9 -7 39 -57 67 -112 27 -55 95 -184 151 -287 137 -252 200 -379 211 -425
26 -108 43 -160 64 -192 30 -45 99 -229 91 -242 -7 -12 15 -113 38 -167 10
-24 18 -51 18 -60 0 -9 9 -39 20 -67 59 -152 80 -218 80 -250 0 -20 4 -44 10
-54 8 -17 20 -64 64 -254 7 -32 9 -60 5 -63 -5 -3 -11 8 -14 23 -3 15 -17 75
-31 133 -14 58 -28 116 -30 130 -3 14 -15 59 -26 100 -11 41 -24 89 -28 105
-14 50 -26 85 -66 185 -20 52 -43 118 -50 145 -18 73 -83 248 -98 265 -8 8
-14 29 -14 45 0 17 -13 57 -27 89 -15 33 -38 94 -52 135 -31 93 -81 203 -127
279 -50 83 -66 113 -146 273 -41 79 -99 182 -130 229 -31 47 -76 123 -100 170
-24 47 -86 154 -138 239 -52 85 -115 195 -139 245 -25 50 -54 103 -64 118 -26
36 -49 27 -49 -21 0 -20 -5 -43 -11 -51 -8 -12 -9 -11 -4 6 7 25 -33 118 -69
161 -25 30 -65 105 -71 132 -7 35 -59 169 -87 225 -18 36 -65 96 -121 155 -87
91 -197 227 -197 244 0 4 10 12 23 18 19 8 60 1 203 -35 99 -25 204 -48 234
-51 67 -8 200 -35 385 -80 77 -19 185 -39 240 -45 55 -6 120 -14 145 -18 25
-4 92 -7 150 -7 l105 0 86 90 c212 221 208 215 163 252 -16 13 -38 23 -49 23
-11 0 -29 6 -40 14 -11 7 -40 16 -64 20 -24 4 -56 13 -72 21 -15 8 -44 15 -64
15 -19 0 -35 4 -35 9 0 5 -24 9 -52 9 -29 -1 -89 7 -133 16 -44 10 -111 21
-150 26 -38 5 -88 12 -110 16 -99 18 -637 -8 -676 -32 -4 -2 0 -26 7 -52 13
-42 13 -53 0 -83 -14 -31 -15 -32 -16 -9 0 14 -7 36 -16 48 -11 15 -12 27 -5
39 6 12 5 26 -5 45 -12 23 -21 28 -49 28 -38 0 -47 15 -15 25 11 3 20 9 21 13
0 4 2 18 5 31 2 13 0 29 -4 35 -5 6 -17 33 -26 61 -9 27 -28 62 -43 77 -24 26
-28 27 -44 12 -16 -14 -16 -20 -3 -65 19 -62 10 -162 -17 -216 -10 -20 -19
-42 -19 -48 0 -5 -13 -25 -29 -42 -16 -18 -55 -66 -87 -108 -49 -61 -69 -79
-116 -99 -49 -22 -58 -29 -63 -58 -3 -18 -1 -55 5 -83 5 -27 14 -72 19 -100 5
-27 23 -77 39 -110 17 -33 53 -107 81 -166 66 -135 187 -276 283 -328 35 -18
101 -59 148 -90 47 -31 98 -61 113 -66 16 -6 25 -14 21 -18 -15 -15 -43 -6
-95 29 -30 20 -75 47 -101 60 -26 13 -49 28 -53 34 -4 6 -28 21 -54 35 -56 28
-161 133 -209 208 -18 29 -67 120 -107 202 -65 133 -76 163 -94 264 -20 108
-30 130 -57 131 -29 0 -38 -34 -40 -143 -8 -405 -54 -568 -224 -787 -28 -36
-76 -99 -108 -141 -40 -54 -79 -91 -132 -128 -41 -28 -79 -51 -83 -51 -4 0
-33 -16 -63 -35 -30 -19 -62 -35 -72 -35 -32 0 -118 47 -144 78 -47 56 -50
219 -8 355 25 81 36 85 15 7 -33 -123 -35 -200 -9 -289 16 -58 38 -91 60 -91
10 0 120 85 144 110 3 3 32 28 65 55 33 28 62 52 65 55 3 3 30 25 60 50 30 25
57 47 60 50 3 3 32 27 65 55 33 27 68 57 77 65 9 8 41 35 72 60 58 48 77 81
95 170 6 30 14 66 17 80 20 91 37 472 21 496 -9 15 -85 34 -133 34 -30 0 -45
8 -77 40 -22 23 -43 40 -48 38 -20 -7 -178 -193 -212 -250 -83 -136 -201 -346
-224 -396 -14 -29 -35 -89 -48 -135 -13 -45 -24 -70 -24 -56 -2 61 78 251 168
400 39 65 2 93 -53 40 -112 -108 -346 -254 -466 -292 -55 -17 -168 -29 -415
-44 -94 -6 -102 -5 -135 17 -28 19 -35 30 -33 54 4 87 109 211 258 309 44 29
91 62 105 73 14 12 30 26 36 30 5 5 106 73 222 151 117 78 212 145 212 150 0
5 -6 14 -14 21 -18 14 -150 5 -236 -15 -50 -12 -242 -28 -330 -28 -155 1 -282
51 -329 130 -9 14 -35 32 -61 42 -61 22 -65 52 -13 105 21 21 54 46 73 56 47
24 213 80 236 80 11 0 48 9 84 20 36 11 88 22 115 25 72 7 187 38 219 59 32
20 25 36 -25 56 -16 7 -28 15 -26 17 3 2 33 -9 69 -25 63 -29 180 -55 248 -54
19 0 64 -3 100 -8 36 -5 117 -12 180 -16 134 -7 136 -7 146 77 6 52 5 55 -25
77 -44 32 -156 87 -226 110 -73 25 -112 31 -310 47 -111 9 -166 16 -225 29
-94 20 -210 -1 -210 -38 0 -7 20 -40 45 -73 41 -55 53 -64 108 -83 56 -18 101
-39 86 -40 -6 0 -82 26 -154 53 -42 16 -102 76 -111 113 -4 14 3 35 18 58 30
46 64 54 188 43 49 -5 83 -11 195 -32 17 -3 63 -8 103 -10 171 -9 315 -46 419
-107 71 -42 126 -62 150 -54 32 11 62 64 56 99 -12 69 -7 182 9 217 9 19 28
61 41 93 14 31 28 57 30 57 3 0 -6 -30 -20 -67 -55 -152 -58 -172 -34 -260 13
-49 48 -87 71 -77 8 4 51 10 95 14 72 7 81 6 97 -12 15 -18 23 -19 79 -10 34
5 85 7 113 5 32 -3 57 1 69 9 20 15 26 66 17 138 -7 54 -4 59 16 33 10 -15 16
-16 32 -6 18 11 18 9 -1 -56 -29 -96 -21 -115 58 -152 l64 -31 49 27 c76 41
148 110 182 173 17 32 47 76 68 98 58 62 202 243 202 253 0 39 -107 48 -200
17 -170 -56 -195 -69 -256 -136 -32 -35 -76 -83 -97 -105 l-38 -40 14 36 c8
19 36 65 63 102 40 57 55 70 93 81 26 8 82 29 126 47 44 18 103 38 130 44 58
13 153 9 172 -7z m-51 -40 c4 -5 -122 -164 -181 -230 -27 -30 -60 -75 -73
-101 -24 -48 -109 -132 -166 -162 -37 -20 -63 -16 -114 15 -30 19 -33 24 -26
53 21 100 42 140 106 211 36 40 78 86 92 103 18 22 47 38 93 53 37 12 80 28
95 36 16 8 47 17 71 20 23 4 44 8 46 10 4 4 51 -3 57 -8z m-2079 -407 c18 -5
60 -12 95 -16 35 -3 79 -8 98 -10 19 -2 73 -7 120 -10 123 -9 202 -30 305 -80
128 -62 138 -71 127 -120 l-8 -40 -60 1 c-32 0 -90 4 -129 7 -38 4 -122 11
-185 17 -157 14 -160 15 -290 69 -63 27 -126 52 -140 56 -34 10 -46 21 -82 73
-25 36 -28 46 -17 53 18 11 126 11 166 0z m1739 -413 c22 -60 21 -69 -13 -86
-21 -11 -21 -11 -16 41 3 28 6 53 8 55 2 2 -3 19 -11 37 -8 19 -14 38 -14 42
1 15 25 -32 46 -89z m20 -158 c40 0 54 -21 29 -46 -15 -15 -14 -18 9 -43 20
-20 26 -38 26 -69 0 -64 32 -57 73 16 23 41 24 46 11 88 -10 34 -10 44 -1 45
7 0 21 2 32 4 34 7 133 14 295 21 201 10 249 9 329 -4 223 -36 269 -45 296
-53 17 -5 66 -11 110 -15 44 -3 91 -12 105 -19 14 -8 45 -18 70 -24 78 -16
145 -46 145 -63 0 -9 -57 -75 -128 -147 l-127 -131 -103 5 c-56 2 -111 6 -122
9 -19 4 -67 10 -175 22 -87 10 -116 15 -225 44 -60 16 -126 32 -145 35 -19 3
-53 10 -75 15 -22 5 -83 16 -135 24 -52 8 -157 31 -232 50 -132 34 -191 48
-214 49 -12 0 -74 -44 -74 -53 0 -27 114 -172 241 -305 73 -78 103 -129 144
-255 32 -94 66 -170 100 -215 12 -16 34 -53 48 -80 24 -48 24 -52 10 -95 -30
-87 -29 -87 -124 -24 -46 31 -116 74 -156 95 -51 29 -92 63 -144 120 -63 68
-129 158 -129 174 0 2 -27 61 -61 131 -46 97 -65 150 -80 226 -12 65 -16 105
-10 116 5 10 31 25 58 35 27 9 53 25 60 35 6 10 47 62 92 116 45 55 84 111 88
125 3 14 13 36 21 49 13 20 17 21 24 8 6 -10 22 -16 44 -16z m-693 -360 c23 0
59 -5 81 -11 l38 -11 -6 -191 c-7 -232 -4 -204 -27 -307 -35 -160 -25 -146
-212 -302 -94 -79 -203 -170 -241 -203 -152 -130 -225 -187 -235 -181 -17 11
-38 89 -40 152 -2 44 10 108 43 240 48 193 68 250 112 330 181 319 229 392
309 478 l70 75 33 -35 c28 -28 41 -34 75 -34z m1035 -882 c-6 -18 -17 -40 -25
-48 -14 -13 -14 -13 -4 7 6 12 15 33 21 47 14 38 21 32 8 -6z"/>
<path d="M3770 4788 c-19 -4 -55 -10 -80 -13 -84 -10 -215 -49 -271 -81 -31
-17 -76 -40 -100 -50 -92 -39 -197 -98 -264 -148 -38 -29 -82 -60 -97 -69 -33
-20 -31 -41 16 -141 18 -39 42 -93 52 -121 20 -50 20 -50 64 -50 42 1 106 10
140 20 8 2 51 7 94 10 79 5 203 35 337 80 40 14 87 25 104 25 55 0 132 29 202
76 37 25 89 54 115 64 25 9 83 43 128 75 l82 58 -6 38 c-11 71 -22 85 -93 124
-37 20 -77 45 -88 54 -22 20 -167 54 -204 48 -13 -2 -40 -1 -60 3 -20 3 -52 3
-71 -2z m254 -52 c32 -8 61 -18 65 -24 3 -5 37 -27 75 -48 58 -33 71 -45 82
-78 8 -21 12 -42 9 -46 -10 -17 -154 -109 -180 -116 -14 -3 -60 -28 -101 -55
-93 -61 -132 -77 -203 -86 -31 -3 -94 -18 -141 -34 -136 -44 -239 -68 -324
-74 -43 -3 -104 -12 -135 -19 -98 -22 -101 -20 -130 59 -14 39 -36 88 -48 108
-28 47 -29 73 -4 87 11 5 51 34 90 63 38 29 107 70 152 92 45 22 124 61 174
86 90 46 182 76 260 86 22 3 56 9 75 13 49 12 213 4 284 -14z"/>
<path d="M2523 4509 c-18 -18 -16 -29 8 -55 l20 -21 -25 4 c-18 4 -28 0 -32
-11 -6 -15 -10 -14 -33 7 -28 26 -79 47 -98 40 -7 -3 -13 -17 -14 -31 l-1 -27
-7 25 c-12 42 -82 37 -86 -7 -1 -26 -14 -43 -30 -43 -7 0 -38 -14 -69 -32 -57
-33 -76 -61 -70 -108 2 -14 5 -73 8 -131 2 -59 10 -126 17 -149 24 -78 119
-123 258 -122 165 2 200 5 266 24 75 21 101 37 129 81 18 26 18 28 -9 74 -16
26 -45 65 -65 87 -20 23 -40 53 -44 69 -9 39 -41 67 -77 67 -26 0 -33 -6 -50
-45 -13 -29 -31 -51 -51 -61 -34 -18 -138 -31 -138 -18 0 5 44 32 98 60 54 28
98 58 100 67 3 16 -65 67 -89 67 -28 0 -99 51 -99 71 0 19 1 19 23 -3 30 -30
102 -62 121 -55 9 4 16 17 16 29 1 17 5 12 15 -16 18 -50 23 -55 87 -76 53
-17 53 -17 56 -61 3 -39 10 -50 63 -101 33 -32 65 -58 73 -58 16 0 36 43 36
78 0 32 -35 174 -49 200 -15 28 -37 44 -74 52 l-32 8 30 1 c32 2 65 21 65 39
0 16 -83 62 -111 62 -14 0 -29 4 -34 9 -17 17 -89 24 -102 10z m74 -34 c21 -8
51 -17 67 -19 16 -3 37 -13 45 -22 15 -15 14 -16 -14 -10 -77 18 -105 28 -127
46 -28 23 -21 25 29 5z m-287 -67 c-1 -18 -2 -38 -1 -44 1 -16 66 -56 123 -78
76 -28 83 -21 -106 -117 -71 -36 -77 -42 -63 -56 25 -25 132 -28 197 -6 49 16
58 24 79 66 13 26 29 47 36 47 17 0 45 -39 45 -62 0 -10 16 -34 36 -55 20 -20
48 -55 61 -76 20 -33 23 -44 14 -63 -19 -43 -113 -76 -231 -80 -41 -2 -84 -5
-95 -7 -65 -14 -208 26 -246 69 -21 23 -33 90 -31 171 1 34 -2 82 -7 106 -12
66 -1 81 84 122 64 31 77 41 82 66 8 39 25 37 23 -3z m117 10 c35 -25 50 -48
30 -48 -22 0 -77 39 -77 55 0 20 8 19 47 -7z m223 -58 c40 -10 80 -26 90 -35
22 -20 66 -195 56 -222 -10 -26 -107 72 -104 107 3 55 -13 75 -70 86 -36 7
-69 33 -76 59 -3 13 -9 31 -13 40 -6 17 -5 17 20 0 14 -9 58 -25 97 -35z m5
40 c25 -11 -1 -11 -35 0 -20 6 -21 8 -5 8 11 0 29 -3 40 -8z"/>
<path d="M1627 4294 c-3 -3 -88 -6 -189 -6 -159 0 -200 -4 -318 -28 -173 -35
-433 -105 -487 -131 -45 -22 -97 -75 -88 -90 3 -4 24 -14 46 -21 26 -7 45 -21
54 -37 18 -34 106 -86 180 -106 82 -23 242 -27 345 -10 46 8 125 17 175 20 49
3 101 7 115 10 14 2 67 6 119 10 52 3 97 8 101 10 4 2 42 11 86 20 51 11 102
30 142 53 l64 37 -7 75 c-3 41 -1 90 4 107 12 41 -6 63 -52 64 -18 0 -41 2
-52 4 -11 2 -56 6 -100 9 -44 2 -92 7 -106 10 -14 3 -28 3 -32 0z m183 -48
c58 -4 110 -7 115 -8 6 -1 10 -41 10 -99 l0 -97 -50 -30 c-27 -16 -77 -35
-110 -42 -33 -6 -73 -15 -90 -20 -16 -5 -68 -12 -115 -15 -47 -2 -103 -7 -125
-10 -22 -3 -72 -7 -110 -10 -39 -2 -122 -11 -185 -19 -142 -20 -272 -12 -362
23 -48 18 -109 64 -124 93 -8 15 -22 28 -32 28 -41 1 -45 17 -10 44 40 30 322
110 528 150 104 20 151 24 280 23 85 -1 169 0 185 3 17 4 44 3 60 -1 17 -4 77
-10 135 -13z"/>
<path d="M1999 4219 c-22 -41 11 -182 46 -195 21 -9 26 -2 35 45 19 107 -42
221 -81 150z m45 -36 c6 -21 9 -69 6 -98 l-1 -20 -8 20 c-15 36 -23 115 -12
115 5 0 12 -8 15 -17z"/>
<path d="M1935 3961 c-11 -4 -40 -16 -65 -28 -25 -11 -76 -30 -115 -43 -169
-54 -158 -48 -480 -264 -344 -230 -382 -258 -446 -325 -56 -59 -68 -78 -77
-123 -12 -62 -5 -75 51 -88 41 -9 250 -2 287 9 14 4 57 9 95 10 78 2 91 5 155
34 25 11 57 25 71 31 44 19 197 118 275 179 88 69 219 196 295 287 30 36 59
71 66 78 7 7 29 33 49 58 44 53 42 61 -31 142 -49 54 -75 62 -130 43z m109
-71 c25 -27 46 -54 46 -60 0 -16 -134 -174 -240 -283 -151 -157 -299 -266
-480 -354 -86 -41 -104 -46 -190 -52 -53 -4 -100 -10 -106 -14 -20 -12 -273
-12 -285 0 -30 30 21 123 107 196 77 66 668 461 728 487 25 10 77 29 117 40
40 12 107 37 148 56 42 18 83 34 92 34 9 0 37 -22 63 -50z"/>
</g>
</svg>
